<svg  xmlns="http://www.w3.org/2000/svg"  viewBox="0 18 100 100">
<path fill="#83CD29" ></path><path fill="white" d="M97.982 68.43c.313-.183.506-.517.506-.88v-2.354c0-.362-.192-.696-.506-.879l-8.364-4.856a1.017 1.017 0 00-1.019-.002l-8.416 4.859a1.018 1.018 0 00-.508.88v9.716c0 .365.196.703.514.884l8.363 4.765c.308.177.686.178.997.006l5.058-2.812a.508.508 0 00.006-.885l-8.468-4.86a.507.507 0 01-.256-.44v-3.046c0-.182.097-.349.254-.439l2.637-1.52a.505.505 0 01.507 0l2.637 1.52a.507.507 0 01.255.439v2.396a.507.507 0 00.764.44l5.039-2.932"></path><path fill="#83CD29" d="M88.984 67.974a.2.2 0 01.195 0l1.615.933c.06.035.097.1.097.169v1.865c0 .07-.037.134-.097.169l-1.615.932a.194.194 0 01-.195 0l-1.614-.932a.194.194 0 01-.098-.169v-1.865c0-.069.037-.134.098-.169l1.614-.933"></path><path fill="white" d="M67.083 71.854c0 .09-.048.174-.127.22l-2.89 1.666a.251.251 0 01-.254 0l-2.89-1.666a.255.255 0 01-.127-.22v-3.338c0-.09.049-.175.127-.221l2.89-1.668a.248.248 0 01.255 0l2.891 1.668a.258.258 0 01.126.221v3.338zm.781-24.716a.511.511 0 00-.756.444v12.915a.359.359 0 01-.177.308.359.359 0 01-.356 0l-2.108-1.215a1.017 1.017 0 00-1.015 0l-8.418 4.858a1.018 1.018 0 00-.509.881v9.719c0 .363.194.698.508.881l8.418 4.861c.314.182.702.182 1.017 0l8.42-4.861a1.02 1.02 0 00.508-.881V50.821c0-.368-.2-.708-.521-.888l-5.011-2.795"></path><path fill="#83CD29" d="M38.238 59.407a1.014 1.014 0 011.016 0l8.418 4.857c.314.182.508.518.508.881v9.722c0 .363-.194.699-.508.881l-8.417 4.861a1.02 1.02 0 01-1.017 0l-8.415-4.861a1.02 1.02 0 01-.508-.881v-9.723c0-.362.194-.698.508-.88l8.415-4.857"></path><path fill="white" d="M22.93 65.064c0-.366-.192-.702-.508-.883l-8.415-4.843a.99.99 0 00-.464-.133h-.087a.993.993 0 00-.464.133l-8.416 4.843a1.02 1.02 0 00-.509.883l.018 13.04c0 .182.095.351.254.439a.487.487 0 00.505 0l5-2.864c.316-.188.509-.519.509-.882v-6.092c0-.364.192-.699.507-.881l2.13-1.226a.994.994 0 01.508-.137c.174 0 .352.044.507.137l2.128 1.226c.315.182.509.517.509.881v6.092c0 .363.195.696.509.882l5 2.864a.508.508 0 00.76-.439l.019-13.04"></path>
</svg>